<svg width="380" height="275" viewBox="0 0 722 519" fill="none" xmlns="http://www.w3.org/2000/svg">
                    <path d="M553.118 517.5H481.882C475.038 517.5 469.5 511.99 469.5 505.226V489.5H553.118C559.965 489.5 565.5 495.01 565.5 501.771V505.226C565.5 511.988 559.964 517.5 553.118 517.5Z" stroke="white" stroke-width="3"></path>
                    <path d="M703.118 230.5H631.882C625.038 230.5 619.5 224.99 619.5 218.226V202.5H703.118C709.965 202.5 715.5 208.01 715.5 214.771V218.226C715.5 224.988 709.964 230.5 703.118 230.5Z" stroke="white" stroke-width="3"></path>
                    <path d="M180.185 365.5H129.815C125.221 365.5 121.5 361.787 121.5 357.225V346.5H180.185C184.781 346.5 188.5 350.213 188.5 354.773V357.225C188.5 361.785 184.781 365.5 180.185 365.5Z" stroke="white" stroke-width="3"></path>
                    <path d="M230.8 475.975H363.2C377.437 475.975 389 464.436 389 450.215V418H230.8C216.557 418 205 429.539 205 443.753V450.215C205 464.43 216.557 475.975 230.8 475.975Z" fill="white"></path>
                    <path d="M238.96 436.968L242.223 443.564L249.5 444.625L244.235 449.76L245.476 457.007L238.96 453.584L232.454 457.007L233.695 449.76L228.43 444.625L235.707 443.564L238.96 436.968Z" fill="#F7A004"></path>
                    <path d="M266.317 436.968L269.571 443.564L276.847 444.625L271.582 449.76L272.824 457.007L266.317 453.584L259.801 457.007L261.052 449.76L255.777 444.625L263.064 443.564L266.317 436.968Z" fill="#F7A004"></path>
                    <path d="M295.075 436.968L298.328 443.564L305.605 444.625L300.34 449.76L301.581 457.007L295.075 453.584L288.559 457.007L289.8 449.76L284.535 444.625L291.812 443.564L295.075 436.968Z" fill="#F7A004"></path>
                    <path d="M323.471 436.968L326.725 443.564L334.002 444.625L328.736 449.76L329.988 457.007L323.471 453.584L316.965 457.007L318.206 449.76L312.941 444.625L320.218 443.564L323.471 436.968Z" fill="#F7A004"></path>
                    <path d="M352.218 436.968L355.471 443.564L362.748 444.625L357.483 449.76L358.734 457.007L352.218 453.584L345.711 457.007L346.953 449.76L341.688 444.625L348.964 443.564L352.218 436.968Z" fill="#F7A004"></path>
                    <path d="M224.77 111.227L132.902 111.227C123.023 111.227 115 103.22 115 93.353V70.9999L224.77 70.9999C234.653 70.9999 242.672 79.0061 242.672 88.8693V93.353C242.672 103.216 234.653 111.227 224.77 111.227Z" fill="white"></path>
                    <path d="M138.564 84.1611L140.828 88.7381L145.878 89.4743L142.224 93.0372L143.086 98.0656L138.564 95.6903L134.05 98.0656L134.911 93.0372L131.258 89.4743L136.307 88.7381L138.564 84.1611Z" fill="#F7A004"></path>
                    <path d="M157.544 84.1611L159.801 88.7381L164.85 89.4743L161.197 93.0372L162.058 98.0656L157.544 95.6903L153.022 98.0656L153.891 93.0372L150.23 89.4743L155.287 88.7381L157.544 84.1611Z" fill="#F7A004"></path>
                    <path d="M177.497 84.1611L179.754 88.7381L184.803 89.4743L181.15 93.0372L182.011 98.0656L177.497 95.6903L172.976 98.0656L173.837 93.0372L170.184 89.4743L175.233 88.7381L177.497 84.1611Z" fill="#F7A004"></path>
                    <path d="M197.201 84.1611L199.458 88.7381L204.507 89.4743L200.854 93.0372L201.722 98.0656L197.201 95.6903L192.687 98.0656L193.548 93.0372L189.895 89.4743L194.944 88.7381L197.201 84.1611Z" fill="#F7A004"></path>
                    <path d="M216.914 86.9531L218.067 89.2868L218.351 89.8702L218.997 89.9605L221.574 90.3355L219.713 92.1482L219.247 92.5997L219.358 93.2386L219.796 95.8015L217.497 94.593L216.921 94.2874L216.344 94.593L214.045 95.8015L214.483 93.2386L214.594 92.5997L214.129 92.1482L212.267 90.3355L214.844 89.9605L215.49 89.8702L215.775 89.2868L216.928 86.9531M216.928 84.1611L214.67 88.7381L209.621 89.4743L213.274 93.0372L212.413 98.0656L216.928 95.6903L221.442 98.0656L220.581 93.0372L224.234 89.4743L219.185 88.7381L216.928 84.1611Z" fill="#F7A004"></path>
                    <path d="M638.835 104L460.165 104C444.071 104 431 90.8641 431 74.6748V31L638.835 31C654.936 31 668 44.1359 668 60.3185V74.6748C668 90.8575 654.936 104 638.835 104Z" fill="white"></path>
                    <path d="M29.1653 295H178.835C194.929 295 208 281.864 208 265.675V222L29.1653 222C13.0642 222 0 235.136 0 251.318L0 265.675C0 281.857 13.0642 295 29.1653 295Z" fill="white"></path>
                    <path d="M656.999 428L443.164 428C427.069 428 413.998 414.864 413.998 398.675V361H656.999C673.1 361 686.164 374.136 686.164 390.318V398.675C686.164 414.857 673.1 428 656.999 428Z" fill="white"></path>
                    <path d="M319.118 29.5L247.882 29.5C241.038 29.5 235.5 23.9905 235.5 17.2261V1.5L319.118 1.5C325.965 1.5 331.5 7.00951 331.5 13.7708V17.2261C331.5 23.9878 325.964 29.5 319.118 29.5Z" stroke="white" stroke-width="3"></path>
                    <path d="M470.286 47.4V60H468.504V55.014C467.172 55.53 465.942 55.788 464.814 55.788C463.278 55.788 462.084 55.416 461.232 54.672C460.392 53.928 459.972 52.866 459.972 51.486V47.4H461.736V51.288C461.736 52.224 462.018 52.944 462.582 53.448C463.158 53.952 463.968 54.204 465.012 54.204C466.176 54.204 467.34 53.94 468.504 53.412V47.4H470.286ZM482.55 55.284C482.55 55.416 482.538 55.59 482.514 55.806H474.774C474.882 56.646 475.248 57.324 475.872 57.84C476.508 58.344 477.294 58.596 478.23 58.596C479.37 58.596 480.288 58.212 480.984 57.444L481.938 58.56C481.506 59.064 480.966 59.448 480.318 59.712C479.682 59.976 478.968 60.108 478.176 60.108C477.168 60.108 476.274 59.904 475.494 59.496C474.714 59.076 474.108 58.494 473.676 57.75C473.256 57.006 473.046 56.166 473.046 55.23C473.046 54.306 473.25 53.472 473.658 52.728C474.078 51.984 474.648 51.408 475.368 51C476.1 50.58 476.922 50.37 477.834 50.37C478.746 50.37 479.556 50.58 480.264 51C480.984 51.408 481.542 51.984 481.938 52.728C482.346 53.472 482.55 54.324 482.55 55.284ZM477.834 51.828C477.006 51.828 476.31 52.08 475.746 52.584C475.194 53.088 474.87 53.748 474.774 54.564H480.894C480.798 53.76 480.468 53.106 479.904 52.602C479.352 52.086 478.662 51.828 477.834 51.828ZM489.389 60.108C488.417 60.108 487.547 59.898 486.779 59.478C486.023 59.058 485.429 58.482 484.997 57.75C484.565 57.006 484.349 56.166 484.349 55.23C484.349 54.294 484.565 53.46 484.997 52.728C485.429 51.984 486.023 51.408 486.779 51C487.547 50.58 488.417 50.37 489.389 50.37C490.253 50.37 491.021 50.544 491.693 50.892C492.377 51.24 492.905 51.744 493.277 52.404L491.963 53.25C491.663 52.794 491.291 52.452 490.847 52.224C490.403 51.996 489.911 51.882 489.371 51.882C488.747 51.882 488.183 52.02 487.679 52.296C487.187 52.572 486.797 52.968 486.509 53.484C486.233 53.988 486.095 54.57 486.095 55.23C486.095 55.902 486.233 56.496 486.509 57.012C486.797 57.516 487.187 57.906 487.679 58.182C488.183 58.458 488.747 58.596 489.371 58.596C489.911 58.596 490.403 58.482 490.847 58.254C491.291 58.026 491.663 57.684 491.963 57.228L493.277 58.056C492.905 58.716 492.377 59.226 491.693 59.586C491.021 59.934 490.253 60.108 489.389 60.108ZM495.514 50.46H497.242V54.51H502.678V50.46H504.406V60H502.678V56.004H497.242V60H495.514V50.46ZM507.766 50.46H509.494V57.408L515.344 50.46H516.91V60H515.182V53.052L509.35 60H507.766V50.46ZM520.264 50.46H521.992V57.408L527.842 50.46H529.408V60H527.68V53.052L521.848 60H520.264V50.46ZM524.728 49.218C523.84 49.218 523.15 49.008 522.658 48.588C522.166 48.156 521.914 47.538 521.902 46.734H523.072C523.084 47.178 523.234 47.538 523.522 47.814C523.822 48.078 524.218 48.21 524.71 48.21C525.202 48.21 525.598 48.078 525.898 47.814C526.198 47.538 526.354 47.178 526.366 46.734H527.572C527.56 47.538 527.302 48.156 526.798 48.588C526.294 49.008 525.604 49.218 524.728 49.218ZM546.434 50.46V60H544.706V51.972H539.324V60H537.596V50.46H546.434ZM554.836 50.37C555.76 50.37 556.588 50.574 557.32 50.982C558.052 51.39 558.622 51.96 559.03 52.692C559.45 53.424 559.66 54.27 559.66 55.23C559.66 56.19 559.45 57.042 559.03 57.786C558.622 58.518 558.052 59.088 557.32 59.496C556.588 59.904 555.76 60.108 554.836 60.108C554.152 60.108 553.522 59.976 552.946 59.712C552.382 59.448 551.902 59.064 551.506 58.56V63.492H549.778V50.46H551.434V51.972C551.818 51.444 552.304 51.048 552.892 50.784C553.48 50.508 554.128 50.37 554.836 50.37ZM554.692 58.596C555.304 58.596 555.85 58.458 556.33 58.182C556.822 57.894 557.206 57.498 557.482 56.994C557.77 56.478 557.914 55.89 557.914 55.23C557.914 54.57 557.77 53.988 557.482 53.484C557.206 52.968 556.822 52.572 556.33 52.296C555.85 52.02 555.304 51.882 554.692 51.882C554.092 51.882 553.546 52.026 553.054 52.314C552.574 52.59 552.19 52.98 551.902 53.484C551.626 53.988 551.488 54.57 551.488 55.23C551.488 55.89 551.626 56.478 551.902 56.994C552.178 57.498 552.562 57.894 553.054 58.182C553.546 58.458 554.092 58.596 554.692 58.596ZM566.256 60.108C565.308 60.108 564.456 59.898 563.7 59.478C562.944 59.058 562.35 58.482 561.918 57.75C561.498 57.006 561.288 56.166 561.288 55.23C561.288 54.294 561.498 53.46 561.918 52.728C562.35 51.984 562.944 51.408 563.7 51C564.456 50.58 565.308 50.37 566.256 50.37C567.204 50.37 568.05 50.58 568.794 51C569.55 51.408 570.138 51.984 570.558 52.728C570.99 53.46 571.206 54.294 571.206 55.23C571.206 56.166 570.99 57.006 570.558 57.75C570.138 58.482 569.55 59.058 568.794 59.478C568.05 59.898 567.204 60.108 566.256 60.108ZM566.256 58.596C566.868 58.596 567.414 58.458 567.894 58.182C568.386 57.894 568.77 57.498 569.046 56.994C569.322 56.478 569.46 55.89 569.46 55.23C569.46 54.57 569.322 53.988 569.046 53.484C568.77 52.968 568.386 52.572 567.894 52.296C567.414 52.02 566.868 51.882 566.256 51.882C565.644 51.882 565.092 52.02 564.6 52.296C564.12 52.572 563.736 52.968 563.448 53.484C563.172 53.988 563.034 54.57 563.034 55.23C563.034 55.89 563.172 56.478 563.448 56.994C563.736 57.498 564.12 57.894 564.6 58.182C565.092 58.458 565.644 58.596 566.256 58.596ZM583.333 58.488V62.214H581.713V60H573.739V62.214H572.101V58.488H572.605C573.217 58.452 573.637 58.02 573.865 57.192C574.093 56.364 574.249 55.194 574.333 53.682L574.477 50.46H581.875V58.488H583.333ZM575.917 53.808C575.869 55.008 575.767 56.004 575.611 56.796C575.467 57.576 575.197 58.14 574.801 58.488H580.147V51.972H576.007L575.917 53.808ZM588.986 50.37C590.306 50.37 591.314 50.694 592.01 51.342C592.718 51.99 593.072 52.956 593.072 54.24V60H591.434V58.74C591.146 59.184 590.732 59.526 590.192 59.766C589.664 59.994 589.034 60.108 588.302 60.108C587.234 60.108 586.376 59.85 585.728 59.334C585.092 58.818 584.774 58.14 584.774 57.3C584.774 56.46 585.08 55.788 585.692 55.284C586.304 54.768 587.276 54.51 588.608 54.51H591.344V54.168C591.344 53.424 591.128 52.854 590.696 52.458C590.264 52.062 589.628 51.864 588.788 51.864C588.224 51.864 587.672 51.96 587.132 52.152C586.592 52.332 586.136 52.578 585.764 52.89L585.044 51.594C585.536 51.198 586.124 50.898 586.808 50.694C587.492 50.478 588.218 50.37 588.986 50.37ZM588.59 58.776C589.25 58.776 589.82 58.632 590.3 58.344C590.78 58.044 591.128 57.624 591.344 57.084V55.752H588.68C587.216 55.752 586.484 56.244 586.484 57.228C586.484 57.708 586.67 58.086 587.042 58.362C587.414 58.638 587.93 58.776 588.59 58.776ZM602.682 55.05C603.918 55.362 604.536 56.136 604.536 57.372C604.536 58.212 604.218 58.86 603.582 59.316C602.958 59.772 602.022 60 600.774 60H596.184V50.46H600.612C601.74 50.46 602.622 50.676 603.258 51.108C603.894 51.528 604.212 52.128 604.212 52.908C604.212 53.412 604.074 53.85 603.798 54.222C603.534 54.582 603.162 54.858 602.682 55.05ZM597.876 54.564H600.468C601.128 54.564 601.626 54.444 601.962 54.204C602.31 53.964 602.484 53.616 602.484 53.16C602.484 52.248 601.812 51.792 600.468 51.792H597.876V54.564ZM600.648 58.668C601.368 58.668 601.908 58.554 602.268 58.326C602.628 58.098 602.808 57.744 602.808 57.264C602.808 56.772 602.64 56.406 602.304 56.166C601.98 55.926 601.464 55.806 600.756 55.806H597.876V58.668H600.648ZM615.862 55.284C615.862 55.416 615.85 55.59 615.826 55.806H608.086C608.194 56.646 608.56 57.324 609.184 57.84C609.82 58.344 610.606 58.596 611.542 58.596C612.682 58.596 613.6 58.212 614.296 57.444L615.25 58.56C614.818 59.064 614.278 59.448 613.63 59.712C612.994 59.976 612.28 60.108 611.488 60.108C610.48 60.108 609.586 59.904 608.806 59.496C608.026 59.076 607.42 58.494 606.988 57.75C606.568 57.006 606.358 56.166 606.358 55.23C606.358 54.306 606.562 53.472 606.97 52.728C607.39 51.984 607.96 51.408 608.68 51C609.412 50.58 610.234 50.37 611.146 50.37C612.058 50.37 612.868 50.58 613.576 51C614.296 51.408 614.854 51.984 615.25 52.728C615.658 53.472 615.862 54.324 615.862 55.284ZM611.146 51.828C610.318 51.828 609.622 52.08 609.058 52.584C608.506 53.088 608.182 53.748 608.086 54.564H614.206C614.11 53.76 613.78 53.106 613.216 52.602C612.664 52.086 611.974 51.828 611.146 51.828ZM628.731 58.488V62.286H627.093V60H618.543V50.46H620.271V58.488H625.491V50.46H627.219V58.488H628.731ZM635.381 53.7C636.593 53.712 637.517 53.988 638.153 54.528C638.789 55.068 639.107 55.83 639.107 56.814C639.107 57.846 638.759 58.644 638.063 59.208C637.379 59.76 636.395 60.03 635.111 60.018L630.971 60V50.46H632.699V53.682L635.381 53.7ZM634.967 58.704C635.747 58.716 636.335 58.56 636.731 58.236C637.139 57.912 637.343 57.432 637.343 56.796C637.343 56.172 637.145 55.716 636.749 55.428C636.365 55.14 635.771 54.99 634.967 54.978L632.699 54.942V58.686L634.967 58.704ZM641.597 57.642C641.933 57.642 642.209 57.762 642.425 58.002C642.653 58.23 642.767 58.518 642.767 58.866C642.767 59.046 642.743 59.22 642.695 59.388C642.659 59.556 642.581 59.814 642.461 60.162L641.615 62.664H640.481L641.147 59.982C640.919 59.898 640.733 59.76 640.589 59.568C640.457 59.364 640.391 59.13 640.391 58.866C640.391 58.506 640.505 58.212 640.733 57.984C640.961 57.756 641.249 57.642 641.597 57.642ZM465.732 72.37C466.656 72.37 467.484 72.574 468.216 72.982C468.948 73.39 469.518 73.96 469.926 74.692C470.346 75.424 470.556 76.27 470.556 77.23C470.556 78.19 470.346 79.042 469.926 79.786C469.518 80.518 468.948 81.088 468.216 81.496C467.484 81.904 466.656 82.108 465.732 82.108C465.048 82.108 464.418 81.976 463.842 81.712C463.278 81.448 462.798 81.064 462.402 80.56V85.492H460.674V72.46H462.33V73.972C462.714 73.444 463.2 73.048 463.788 72.784C464.376 72.508 465.024 72.37 465.732 72.37ZM465.588 80.596C466.2 80.596 466.746 80.458 467.226 80.182C467.718 79.894 468.102 79.498 468.378 78.994C468.666 78.478 468.81 77.89 468.81 77.23C468.81 76.57 468.666 75.988 468.378 75.484C468.102 74.968 467.718 74.572 467.226 74.296C466.746 74.02 466.2 73.882 465.588 73.882C464.988 73.882 464.442 74.026 463.95 74.314C463.47 74.59 463.086 74.98 462.798 75.484C462.522 75.988 462.384 76.57 462.384 77.23C462.384 77.89 462.522 78.478 462.798 78.994C463.074 79.498 463.458 79.894 463.95 80.182C464.442 80.458 464.988 80.596 465.588 80.596ZM477.153 82.108C476.205 82.108 475.353 81.898 474.597 81.478C473.841 81.058 473.247 80.482 472.815 79.75C472.395 79.006 472.185 78.166 472.185 77.23C472.185 76.294 472.395 75.46 472.815 74.728C473.247 73.984 473.841 73.408 474.597 73C475.353 72.58 476.205 72.37 477.153 72.37C478.101 72.37 478.947 72.58 479.691 73C480.447 73.408 481.035 73.984 481.455 74.728C481.887 75.46 482.103 76.294 482.103 77.23C482.103 78.166 481.887 79.006 481.455 79.75C481.035 80.482 480.447 81.058 479.691 81.478C478.947 81.898 478.101 82.108 477.153 82.108ZM477.153 80.596C477.765 80.596 478.311 80.458 478.791 80.182C479.283 79.894 479.667 79.498 479.943 78.994C480.219 78.478 480.357 77.89 480.357 77.23C480.357 76.57 480.219 75.988 479.943 75.484C479.667 74.968 479.283 74.572 478.791 74.296C478.311 74.02 477.765 73.882 477.153 73.882C476.541 73.882 475.989 74.02 475.497 74.296C475.017 74.572 474.633 74.968 474.345 75.484C474.069 75.988 473.931 76.57 473.931 77.23C473.931 77.89 474.069 78.478 474.345 78.994C474.633 79.498 475.017 79.894 475.497 80.182C475.989 80.458 476.541 80.596 477.153 80.596ZM489.658 77.032C490.294 77.2 490.786 77.47 491.134 77.842C491.482 78.214 491.656 78.676 491.656 79.228C491.656 79.792 491.464 80.296 491.08 80.74C490.696 81.172 490.162 81.514 489.478 81.766C488.806 82.006 488.05 82.126 487.21 82.126C486.502 82.126 485.806 82.036 485.122 81.856C484.45 81.664 483.85 81.394 483.322 81.046L483.844 79.732C484.3 80.02 484.822 80.248 485.41 80.416C485.998 80.572 486.592 80.65 487.192 80.65C488.008 80.65 488.656 80.512 489.136 80.236C489.628 79.948 489.874 79.564 489.874 79.084C489.874 78.64 489.676 78.298 489.28 78.058C488.896 77.818 488.35 77.698 487.642 77.698H485.896V76.456H487.516C488.164 76.456 488.674 76.342 489.046 76.114C489.418 75.886 489.604 75.574 489.604 75.178C489.604 74.746 489.382 74.41 488.938 74.17C488.506 73.93 487.918 73.81 487.174 73.81C486.226 73.81 485.224 74.056 484.168 74.548L483.7 73.216C484.864 72.628 486.082 72.334 487.354 72.334C488.122 72.334 488.812 72.442 489.424 72.658C490.036 72.874 490.516 73.18 490.864 73.576C491.212 73.972 491.386 74.422 491.386 74.926C491.386 75.394 491.23 75.814 490.918 76.186C490.606 76.558 490.186 76.84 489.658 77.032ZM497.991 77.968H496.011V82H494.283V72.46H496.011V76.492H498.027L501.123 72.46H502.977L499.359 77.05L503.229 82H501.195L497.991 77.968ZM508.267 72.37C509.587 72.37 510.595 72.694 511.291 73.342C511.999 73.99 512.353 74.956 512.353 76.24V82H510.715V80.74C510.427 81.184 510.013 81.526 509.473 81.766C508.945 81.994 508.315 82.108 507.583 82.108C506.515 82.108 505.657 81.85 505.009 81.334C504.373 80.818 504.055 80.14 504.055 79.3C504.055 78.46 504.361 77.788 504.973 77.284C505.585 76.768 506.557 76.51 507.889 76.51H510.625V76.168C510.625 75.424 510.409 74.854 509.977 74.458C509.545 74.062 508.909 73.864 508.069 73.864C507.505 73.864 506.953 73.96 506.413 74.152C505.873 74.332 505.417 74.578 505.045 74.89L504.325 73.594C504.817 73.198 505.405 72.898 506.089 72.694C506.773 72.478 507.499 72.37 508.267 72.37ZM507.871 80.776C508.531 80.776 509.101 80.632 509.581 80.344C510.061 80.044 510.409 79.624 510.625 79.084V77.752H507.961C506.497 77.752 505.765 78.244 505.765 79.228C505.765 79.708 505.951 80.086 506.323 80.362C506.695 80.638 507.211 80.776 507.871 80.776ZM520.473 77.032C521.109 77.2 521.601 77.47 521.949 77.842C522.297 78.214 522.471 78.676 522.471 79.228C522.471 79.792 522.279 80.296 521.895 80.74C521.511 81.172 520.977 81.514 520.293 81.766C519.621 82.006 518.865 82.126 518.025 82.126C517.317 82.126 516.621 82.036 515.937 81.856C515.265 81.664 514.665 81.394 514.137 81.046L514.659 79.732C515.115 80.02 515.637 80.248 516.225 80.416C516.813 80.572 517.407 80.65 518.007 80.65C518.823 80.65 519.471 80.512 519.951 80.236C520.443 79.948 520.689 79.564 520.689 79.084C520.689 78.64 520.491 78.298 520.095 78.058C519.711 77.818 519.165 77.698 518.457 77.698H516.711V76.456H518.331C518.979 76.456 519.489 76.342 519.861 76.114C520.233 75.886 520.419 75.574 520.419 75.178C520.419 74.746 520.197 74.41 519.753 74.17C519.321 73.93 518.733 73.81 517.989 73.81C517.041 73.81 516.039 74.056 514.983 74.548L514.515 73.216C515.679 72.628 516.897 72.334 518.169 72.334C518.937 72.334 519.627 72.442 520.239 72.658C520.851 72.874 521.331 73.18 521.679 73.576C522.027 73.972 522.201 74.422 522.201 74.926C522.201 75.394 522.045 75.814 521.733 76.186C521.421 76.558 521.001 76.84 520.473 77.032ZM528.5 72.37C529.82 72.37 530.828 72.694 531.524 73.342C532.232 73.99 532.586 74.956 532.586 76.24V82H530.948V80.74C530.66 81.184 530.246 81.526 529.706 81.766C529.178 81.994 528.548 82.108 527.816 82.108C526.748 82.108 525.89 81.85 525.242 81.334C524.606 80.818 524.288 80.14 524.288 79.3C524.288 78.46 524.594 77.788 525.206 77.284C525.818 76.768 526.79 76.51 528.122 76.51H530.858V76.168C530.858 75.424 530.642 74.854 530.21 74.458C529.778 74.062 529.142 73.864 528.302 73.864C527.738 73.864 527.186 73.96 526.646 74.152C526.106 74.332 525.65 74.578 525.278 74.89L524.558 73.594C525.05 73.198 525.638 72.898 526.322 72.694C527.006 72.478 527.732 72.37 528.5 72.37ZM528.104 80.776C528.764 80.776 529.334 80.632 529.814 80.344C530.294 80.044 530.642 79.624 530.858 79.084V77.752H528.194C526.73 77.752 525.998 78.244 525.998 79.228C525.998 79.708 526.184 80.086 526.556 80.362C526.928 80.638 527.444 80.776 528.104 80.776ZM542.195 77.05C543.431 77.362 544.049 78.136 544.049 79.372C544.049 80.212 543.731 80.86 543.095 81.316C542.471 81.772 541.535 82 540.287 82H535.697V72.46H540.125C541.253 72.46 542.135 72.676 542.771 73.108C543.407 73.528 543.725 74.128 543.725 74.908C543.725 75.412 543.587 75.85 543.311 76.222C543.047 76.582 542.675 76.858 542.195 77.05ZM537.389 76.564H539.981C540.641 76.564 541.139 76.444 541.475 76.204C541.823 75.964 541.997 75.616 541.997 75.16C541.997 74.248 541.325 73.792 539.981 73.792H537.389V76.564ZM540.161 80.668C540.881 80.668 541.421 80.554 541.781 80.326C542.141 80.098 542.321 79.744 542.321 79.264C542.321 78.772 542.153 78.406 541.817 78.166C541.493 77.926 540.977 77.806 540.269 77.806H537.389V80.668H540.161ZM558.086 77.05C559.322 77.362 559.94 78.136 559.94 79.372C559.94 80.212 559.622 80.86 558.986 81.316C558.362 81.772 557.426 82 556.178 82H551.588V72.46H556.016C557.144 72.46 558.026 72.676 558.662 73.108C559.298 73.528 559.616 74.128 559.616 74.908C559.616 75.412 559.478 75.85 559.202 76.222C558.938 76.582 558.566 76.858 558.086 77.05ZM553.28 76.564H555.872C556.532 76.564 557.03 76.444 557.366 76.204C557.714 75.964 557.888 75.616 557.888 75.16C557.888 74.248 557.216 73.792 555.872 73.792H553.28V76.564ZM556.052 80.668C556.772 80.668 557.312 80.554 557.672 80.326C558.032 80.098 558.212 79.744 558.212 79.264C558.212 78.772 558.044 78.406 557.708 78.166C557.384 77.926 556.868 77.806 556.16 77.806H553.28V80.668H556.052ZM566.803 82.108C565.831 82.108 564.961 81.898 564.193 81.478C563.437 81.058 562.843 80.482 562.411 79.75C561.979 79.006 561.763 78.166 561.763 77.23C561.763 76.294 561.979 75.46 562.411 74.728C562.843 73.984 563.437 73.408 564.193 73C564.961 72.58 565.831 72.37 566.803 72.37C567.667 72.37 568.435 72.544 569.107 72.892C569.791 73.24 570.319 73.744 570.691 74.404L569.377 75.25C569.077 74.794 568.705 74.452 568.261 74.224C567.817 73.996 567.325 73.882 566.785 73.882C566.161 73.882 565.597 74.02 565.093 74.296C564.601 74.572 564.211 74.968 563.923 75.484C563.647 75.988 563.509 76.57 563.509 77.23C563.509 77.902 563.647 78.496 563.923 79.012C564.211 79.516 564.601 79.906 565.093 80.182C565.597 80.458 566.161 80.596 566.785 80.596C567.325 80.596 567.817 80.482 568.261 80.254C568.705 80.026 569.077 79.684 569.377 79.228L570.691 80.056C570.319 80.716 569.791 81.226 569.107 81.586C568.435 81.934 567.667 82.108 566.803 82.108ZM581.409 77.284C581.409 77.416 581.397 77.59 581.373 77.806H573.633C573.741 78.646 574.107 79.324 574.731 79.84C575.367 80.344 576.153 80.596 577.089 80.596C578.229 80.596 579.147 80.212 579.843 79.444L580.797 80.56C580.365 81.064 579.825 81.448 579.177 81.712C578.541 81.976 577.827 82.108 577.035 82.108C576.027 82.108 575.133 81.904 574.353 81.496C573.573 81.076 572.967 80.494 572.535 79.75C572.115 79.006 571.905 78.166 571.905 77.23C571.905 76.306 572.109 75.472 572.517 74.728C572.937 73.984 573.507 73.408 574.227 73C574.959 72.58 575.781 72.37 576.693 72.37C577.605 72.37 578.415 72.58 579.123 73C579.843 73.408 580.401 73.984 580.797 74.728C581.205 75.472 581.409 76.324 581.409 77.284ZM576.693 73.828C575.865 73.828 575.169 74.08 574.605 74.584C574.053 75.088 573.729 75.748 573.633 76.564H579.753C579.657 75.76 579.327 75.106 578.763 74.602C578.211 74.086 577.521 73.828 576.693 73.828ZM596.574 72.46V82H595.026V78.976H592.254H592.056L589.968 82H588.114L590.436 78.742C589.716 78.526 589.164 78.172 588.78 77.68C588.396 77.176 588.204 76.552 588.204 75.808C588.204 74.716 588.576 73.888 589.32 73.324C590.064 72.748 591.09 72.46 592.398 72.46H596.574ZM589.968 75.862C589.968 76.498 590.166 76.972 590.562 77.284C590.97 77.584 591.576 77.734 592.38 77.734H595.026V73.972H592.452C590.796 73.972 589.968 74.602 589.968 75.862ZM603.653 77.968H601.673V82H599.945V72.46H601.673V76.492H603.689L606.785 72.46H608.639L605.021 77.05L608.891 82H606.857L603.653 77.968ZM619.803 82.108C618.831 82.108 617.949 81.898 617.157 81.478C616.377 81.058 615.765 80.476 615.321 79.732C614.877 78.988 614.655 78.154 614.655 77.23C614.655 76.294 614.877 75.454 615.321 74.71C615.765 73.966 616.377 73.384 617.157 72.964C617.949 72.544 618.831 72.334 619.803 72.334C620.643 72.334 621.399 72.466 622.071 72.73C622.755 72.994 623.331 73.378 623.799 73.882L622.791 74.89C622.023 74.134 621.051 73.756 619.875 73.756C618.939 73.756 618.141 74.026 617.481 74.566C616.821 75.094 616.425 75.79 616.293 76.654H621.081V77.932H616.329C616.485 78.76 616.887 79.432 617.535 79.948C618.183 80.452 618.963 80.704 619.875 80.704C621.039 80.704 622.011 80.32 622.791 79.552L623.799 80.542C623.331 81.058 622.755 81.448 622.071 81.712C621.387 81.976 620.631 82.108 619.803 82.108Z" fill="#003B56"></path>
                    <path d="M41.644 251L41.626 241.82L37.072 249.47H36.244L31.69 241.874V251H29.962V238.4H31.438L36.694 247.256L41.878 238.4H43.354L43.372 251H41.644ZM50.408 241.37C51.728 241.37 52.736 241.694 53.432 242.342C54.14 242.99 54.494 243.956 54.494 245.24V251H52.856V249.74C52.568 250.184 52.154 250.526 51.614 250.766C51.086 250.994 50.456 251.108 49.724 251.108C48.656 251.108 47.798 250.85 47.15 250.334C46.514 249.818 46.196 249.14 46.196 248.3C46.196 247.46 46.502 246.788 47.114 246.284C47.726 245.768 48.698 245.51 50.03 245.51H52.766V245.168C52.766 244.424 52.55 243.854 52.118 243.458C51.686 243.062 51.05 242.864 50.21 242.864C49.646 242.864 49.094 242.96 48.554 243.152C48.014 243.332 47.558 243.578 47.186 243.89L46.466 242.594C46.958 242.198 47.546 241.898 48.23 241.694C48.914 241.478 49.64 241.37 50.408 241.37ZM50.012 249.776C50.672 249.776 51.242 249.632 51.722 249.344C52.202 249.044 52.55 248.624 52.766 248.084V246.752H50.102C48.638 246.752 47.906 247.244 47.906 248.228C47.906 248.708 48.092 249.086 48.464 249.362C48.836 249.638 49.352 249.776 50.012 249.776ZM71.1956 241.46V251H57.6056V241.46H59.3336V249.488H63.5456V241.46H65.2736V249.488H69.4676V241.46H71.1956ZM74.551 241.46H76.279V248.408L82.129 241.46H83.695V251H81.967V244.052L76.135 251H74.551V241.46ZM87.049 241.46H88.777V245.51H94.213V241.46H95.941V251H94.213V247.004H88.777V251H87.049V241.46ZM103.009 246.968H101.029V251H99.301V241.46H101.029V245.492H103.045L106.141 241.46H107.995L104.377 246.05L108.247 251H106.213L103.009 246.968ZM113.285 241.37C114.605 241.37 115.613 241.694 116.309 242.342C117.017 242.99 117.371 243.956 117.371 245.24V251H115.733V249.74C115.445 250.184 115.031 250.526 114.491 250.766C113.963 250.994 113.333 251.108 112.601 251.108C111.533 251.108 110.675 250.85 110.027 250.334C109.391 249.818 109.073 249.14 109.073 248.3C109.073 247.46 109.379 246.788 109.991 246.284C110.603 245.768 111.575 245.51 112.907 245.51H115.643V245.168C115.643 244.424 115.427 243.854 114.995 243.458C114.563 243.062 113.927 242.864 113.087 242.864C112.523 242.864 111.971 242.96 111.431 243.152C110.891 243.332 110.435 243.578 110.063 243.89L109.343 242.594C109.835 242.198 110.423 241.898 111.107 241.694C111.791 241.478 112.517 241.37 113.285 241.37ZM112.889 249.776C113.549 249.776 114.119 249.632 114.599 249.344C115.079 249.044 115.427 248.624 115.643 248.084V246.752H112.979C111.515 246.752 110.783 247.244 110.783 248.228C110.783 248.708 110.969 249.086 111.341 249.362C111.713 249.638 112.229 249.776 112.889 249.776ZM135.019 249.488V253.214H133.399V251H125.425V253.214H123.787V249.488H124.291C124.903 249.452 125.323 249.02 125.551 248.192C125.779 247.364 125.935 246.194 126.019 244.682L126.163 241.46H133.561V249.488H135.019ZM127.603 244.808C127.555 246.008 127.453 247.004 127.297 247.796C127.153 248.576 126.883 249.14 126.487 249.488H131.833V242.972H127.693L127.603 244.808ZM137.27 241.46H138.998V251H137.27V241.46ZM138.134 239.624C137.798 239.624 137.516 239.516 137.288 239.3C137.072 239.084 136.964 238.82 136.964 238.508C136.964 238.196 137.072 237.932 137.288 237.716C137.516 237.488 137.798 237.374 138.134 237.374C138.47 237.374 138.746 237.482 138.962 237.698C139.19 237.902 139.304 238.16 139.304 238.472C139.304 238.796 139.19 239.072 138.962 239.3C138.746 239.516 138.47 239.624 138.134 239.624ZM142.367 241.46H144.095V248.408L149.945 241.46H151.511V251H149.783V244.052L143.951 251H142.367V241.46ZM146.831 240.218C145.943 240.218 145.253 240.008 144.761 239.588C144.269 239.156 144.017 238.538 144.005 237.734H145.175C145.187 238.178 145.337 238.538 145.625 238.814C145.925 239.078 146.321 239.21 146.813 239.21C147.305 239.21 147.701 239.078 148.001 238.814C148.301 238.538 148.457 238.178 148.469 237.734H149.675C149.663 238.538 149.405 239.156 148.901 239.588C148.397 240.008 147.707 240.218 146.831 240.218ZM159.023 251.108C158.051 251.108 157.181 250.898 156.413 250.478C155.657 250.058 155.063 249.482 154.631 248.75C154.199 248.006 153.983 247.166 153.983 246.23C153.983 245.294 154.199 244.46 154.631 243.728C155.063 242.984 155.657 242.408 156.413 242C157.181 241.58 158.051 241.37 159.023 241.37C159.887 241.37 160.655 241.544 161.327 241.892C162.011 242.24 162.539 242.744 162.911 243.404L161.597 244.25C161.297 243.794 160.925 243.452 160.481 243.224C160.037 242.996 159.545 242.882 159.005 242.882C158.381 242.882 157.817 243.02 157.313 243.296C156.821 243.572 156.431 243.968 156.143 244.484C155.867 244.988 155.729 245.57 155.729 246.23C155.729 246.902 155.867 247.496 156.143 248.012C156.431 248.516 156.821 248.906 157.313 249.182C157.817 249.458 158.381 249.596 159.005 249.596C159.545 249.596 160.037 249.482 160.481 249.254C160.925 249.026 161.297 248.684 161.597 248.228L162.911 249.056C162.539 249.716 162.011 250.226 161.327 250.586C160.655 250.934 159.887 251.108 159.023 251.108ZM165.149 241.46H166.877V245.51H172.313V241.46H174.041V251H172.313V247.004H166.877V251H165.149V241.46ZM181.487 251.108C180.539 251.108 179.687 250.898 178.931 250.478C178.175 250.058 177.581 249.482 177.149 248.75C176.729 248.006 176.519 247.166 176.519 246.23C176.519 245.294 176.729 244.46 177.149 243.728C177.581 242.984 178.175 242.408 178.931 242C179.687 241.58 180.539 241.37 181.487 241.37C182.435 241.37 183.281 241.58 184.025 242C184.781 242.408 185.369 242.984 185.789 243.728C186.221 244.46 186.437 245.294 186.437 246.23C186.437 247.166 186.221 248.006 185.789 248.75C185.369 249.482 184.781 250.058 184.025 250.478C183.281 250.898 182.435 251.108 181.487 251.108ZM181.487 249.596C182.099 249.596 182.645 249.458 183.125 249.182C183.617 248.894 184.001 248.498 184.277 247.994C184.553 247.478 184.691 246.89 184.691 246.23C184.691 245.57 184.553 244.988 184.277 244.484C184.001 243.968 183.617 243.572 183.125 243.296C182.645 243.02 182.099 242.882 181.487 242.882C180.875 242.882 180.323 243.02 179.831 243.296C179.351 243.572 178.967 243.968 178.679 244.484C178.403 244.988 178.265 245.57 178.265 246.23C178.265 246.89 178.403 247.478 178.679 247.994C178.967 248.498 179.351 248.894 179.831 249.182C180.323 249.458 180.875 249.596 181.487 249.596ZM36.172 268.05C37.408 268.362 38.026 269.136 38.026 270.372C38.026 271.212 37.708 271.86 37.072 272.316C36.448 272.772 35.512 273 34.264 273H29.674V263.46H34.102C35.23 263.46 36.112 263.676 36.748 264.108C37.384 264.528 37.702 265.128 37.702 265.908C37.702 266.412 37.564 266.85 37.288 267.222C37.024 267.582 36.652 267.858 36.172 268.05ZM31.366 267.564H33.958C34.618 267.564 35.116 267.444 35.452 267.204C35.8 266.964 35.974 266.616 35.974 266.16C35.974 265.248 35.302 264.792 33.958 264.792H31.366V267.564ZM34.138 271.668C34.858 271.668 35.398 271.554 35.758 271.326C36.118 271.098 36.298 270.744 36.298 270.264C36.298 269.772 36.13 269.406 35.794 269.166C35.47 268.926 34.954 268.806 34.246 268.806H31.366V271.668H34.138ZM49.7226 273.108C48.7506 273.108 47.8806 272.898 47.1126 272.478C46.3566 272.058 45.7626 271.482 45.3306 270.75C44.8986 270.006 44.6826 269.166 44.6826 268.23C44.6826 267.294 44.8986 266.46 45.3306 265.728C45.7626 264.984 46.3566 264.408 47.1126 264C47.8806 263.58 48.7506 263.37 49.7226 263.37C50.5866 263.37 51.3546 263.544 52.0266 263.892C52.7106 264.24 53.2386 264.744 53.6106 265.404L52.2966 266.25C51.9966 265.794 51.6246 265.452 51.1806 265.224C50.7366 264.996 50.2446 264.882 49.7046 264.882C49.0806 264.882 48.5166 265.02 48.0126 265.296C47.5206 265.572 47.1306 265.968 46.8426 266.484C46.5666 266.988 46.4286 267.57 46.4286 268.23C46.4286 268.902 46.5666 269.496 46.8426 270.012C47.1306 270.516 47.5206 270.906 48.0126 271.182C48.5166 271.458 49.0806 271.596 49.7046 271.596C50.2446 271.596 50.7366 271.482 51.1806 271.254C51.6246 271.026 51.9966 270.684 52.2966 270.228L53.6106 271.056C53.2386 271.716 52.7106 272.226 52.0266 272.586C51.3546 272.934 50.5866 273.108 49.7226 273.108ZM59.2498 263.37C60.5698 263.37 61.5778 263.694 62.2738 264.342C62.9818 264.99 63.3358 265.956 63.3358 267.24V273H61.6978V271.74C61.4098 272.184 60.9958 272.526 60.4558 272.766C59.9278 272.994 59.2978 273.108 58.5658 273.108C57.4978 273.108 56.6398 272.85 55.9918 272.334C55.3558 271.818 55.0378 271.14 55.0378 270.3C55.0378 269.46 55.3438 268.788 55.9558 268.284C56.5678 267.768 57.5398 267.51 58.8718 267.51H61.6078V267.168C61.6078 266.424 61.3918 265.854 60.9598 265.458C60.5278 265.062 59.8918 264.864 59.0518 264.864C58.4878 264.864 57.9358 264.96 57.3958 265.152C56.8558 265.332 56.3998 265.578 56.0278 265.89L55.3078 264.594C55.7998 264.198 56.3878 263.898 57.0718 263.694C57.7558 263.478 58.4818 263.37 59.2498 263.37ZM58.8538 271.776C59.5138 271.776 60.0838 271.632 60.5638 271.344C61.0438 271.044 61.3918 270.624 61.6078 270.084V268.752H58.9438C57.4798 268.752 56.7478 269.244 56.7478 270.228C56.7478 270.708 56.9338 271.086 57.3058 271.362C57.6778 271.638 58.1938 271.776 58.8538 271.776ZM74.6374 263.46V273H72.9094V264.972H68.8054L68.6974 267.096C68.6374 268.38 68.5234 269.454 68.3554 270.318C68.1874 271.17 67.9114 271.854 67.5274 272.37C67.1434 272.886 66.6094 273.144 65.9254 273.144C65.6134 273.144 65.2594 273.09 64.8634 272.982L64.9714 271.524C65.1274 271.56 65.2714 271.578 65.4034 271.578C65.8834 271.578 66.2434 271.368 66.4834 270.948C66.7234 270.528 66.8794 270.03 66.9514 269.454C67.0234 268.878 67.0894 268.056 67.1494 266.988L67.3114 263.46H74.6374ZM82.0647 273.108C81.1167 273.108 80.2647 272.898 79.5087 272.478C78.7527 272.058 78.1587 271.482 77.7267 270.75C77.3067 270.006 77.0967 269.166 77.0967 268.23C77.0967 267.294 77.3067 266.46 77.7267 265.728C78.1587 264.984 78.7527 264.408 79.5087 264C80.2647 263.58 81.1167 263.37 82.0647 263.37C83.0127 263.37 83.8587 263.58 84.6027 264C85.3587 264.408 85.9467 264.984 86.3667 265.728C86.7987 266.46 87.0147 267.294 87.0147 268.23C87.0147 269.166 86.7987 270.006 86.3667 270.75C85.9467 271.482 85.3587 272.058 84.6027 272.478C83.8587 272.898 83.0127 273.108 82.0647 273.108ZM82.0647 271.596C82.6767 271.596 83.2227 271.458 83.7027 271.182C84.1947 270.894 84.5787 270.498 84.8547 269.994C85.1307 269.478 85.2687 268.89 85.2687 268.23C85.2687 267.57 85.1307 266.988 84.8547 266.484C84.5787 265.968 84.1947 265.572 83.7027 265.296C83.2227 265.02 82.6767 264.882 82.0647 264.882C81.4527 264.882 80.9007 265.02 80.4087 265.296C79.9287 265.572 79.5447 265.968 79.2567 266.484C78.9807 266.988 78.8427 267.57 78.8427 268.23C78.8427 268.89 78.9807 269.478 79.2567 269.994C79.5447 270.498 79.9287 270.894 80.4087 271.182C80.9007 271.458 81.4527 271.596 82.0647 271.596ZM89.5099 263.46H91.2379V267.51H96.6739V263.46H98.4019V273H96.6739V269.004H91.2379V273H89.5099V263.46ZM101.762 263.46H103.49V273H101.762V263.46ZM102.626 261.624C102.29 261.624 102.008 261.516 101.78 261.3C101.564 261.084 101.456 260.82 101.456 260.508C101.456 260.196 101.564 259.932 101.78 259.716C102.008 259.488 102.29 259.374 102.626 259.374C102.962 259.374 103.238 259.482 103.454 259.698C103.682 259.902 103.796 260.16 103.796 260.472C103.796 260.796 103.682 261.072 103.454 261.3C103.238 261.516 102.962 261.624 102.626 261.624Z" fill="#003B56"></path>
                    <path d="M454.798 385.4V398H452.998V392.384H445.762V398H443.962V385.4H445.762V390.818H452.998V385.4H454.798ZM466.954 388.46L462.328 398.954C461.92 399.926 461.44 400.61 460.888 401.006C460.348 401.402 459.694 401.6 458.926 401.6C458.458 401.6 458.002 401.522 457.558 401.366C457.126 401.222 456.766 401.006 456.478 400.718L457.216 399.422C457.708 399.89 458.278 400.124 458.926 400.124C459.346 400.124 459.694 400.01 459.97 399.782C460.258 399.566 460.516 399.188 460.744 398.648L461.05 397.982L456.838 388.46H458.638L461.968 396.092L465.262 388.46H466.954ZM480.667 389.972H477.175V398H475.447V389.972H471.955V388.46H480.667V389.972ZM487.492 388.37C488.416 388.37 489.244 388.574 489.976 388.982C490.708 389.39 491.278 389.96 491.686 390.692C492.106 391.424 492.316 392.27 492.316 393.23C492.316 394.19 492.106 395.042 491.686 395.786C491.278 396.518 490.708 397.088 489.976 397.496C489.244 397.904 488.416 398.108 487.492 398.108C486.808 398.108 486.178 397.976 485.602 397.712C485.038 397.448 484.558 397.064 484.162 396.56V401.492H482.434V388.46H484.09V389.972C484.474 389.444 484.96 389.048 485.548 388.784C486.136 388.508 486.784 388.37 487.492 388.37ZM487.348 396.596C487.96 396.596 488.506 396.458 488.986 396.182C489.478 395.894 489.862 395.498 490.138 394.994C490.426 394.478 490.57 393.89 490.57 393.23C490.57 392.57 490.426 391.988 490.138 391.484C489.862 390.968 489.478 390.572 488.986 390.296C488.506 390.02 487.96 389.882 487.348 389.882C486.748 389.882 486.202 390.026 485.71 390.314C485.23 390.59 484.846 390.98 484.558 391.484C484.282 391.988 484.144 392.57 484.144 393.23C484.144 393.89 484.282 394.478 484.558 394.994C484.834 395.498 485.218 395.894 485.71 396.182C486.202 396.458 486.748 396.596 487.348 396.596ZM498.912 398.108C497.964 398.108 497.112 397.898 496.356 397.478C495.6 397.058 495.006 396.482 494.574 395.75C494.154 395.006 493.944 394.166 493.944 393.23C493.944 392.294 494.154 391.46 494.574 390.728C495.006 389.984 495.6 389.408 496.356 389C497.112 388.58 497.964 388.37 498.912 388.37C499.86 388.37 500.706 388.58 501.45 389C502.206 389.408 502.794 389.984 503.214 390.728C503.646 391.46 503.862 392.294 503.862 393.23C503.862 394.166 503.646 395.006 503.214 395.75C502.794 396.482 502.206 397.058 501.45 397.478C500.706 397.898 499.86 398.108 498.912 398.108ZM498.912 396.596C499.524 396.596 500.07 396.458 500.55 396.182C501.042 395.894 501.426 395.498 501.702 394.994C501.978 394.478 502.116 393.89 502.116 393.23C502.116 392.57 501.978 391.988 501.702 391.484C501.426 390.968 501.042 390.572 500.55 390.296C500.07 390.02 499.524 389.882 498.912 389.882C498.3 389.882 497.748 390.02 497.256 390.296C496.776 390.572 496.392 390.968 496.104 391.484C495.828 391.988 495.69 392.57 495.69 393.23C495.69 393.89 495.828 394.478 496.104 394.994C496.392 395.498 496.776 395.894 497.256 396.182C497.748 396.458 498.3 396.596 498.912 396.596ZM519.948 388.46V398H506.358V388.46H508.086V396.488H512.298V388.46H514.026V396.488H518.22V388.46H519.948ZM527.011 393.968H525.031V398H523.303V388.46H525.031V392.492H527.047L530.143 388.46H531.997L528.379 393.05L532.249 398H530.215L527.011 393.968ZM534.061 388.46H535.789V395.408L541.639 388.46H543.205V398H541.477V391.052L535.645 398H534.061V388.46ZM563.435 393.212C563.435 394.688 562.943 395.852 561.959 396.704C560.975 397.556 559.589 398.03 557.801 398.126V401.492H556.109V398.126C554.321 398.03 552.935 397.562 551.951 396.722C550.979 395.87 550.493 394.7 550.493 393.212C550.493 391.736 550.979 390.584 551.951 389.756C552.923 388.928 554.309 388.466 556.109 388.37V384.644H557.801V388.37C559.589 388.466 560.975 388.934 561.959 389.774C562.943 390.602 563.435 391.748 563.435 393.212ZM552.203 393.212C552.203 394.232 552.527 395.03 553.175 395.606C553.835 396.182 554.813 396.512 556.109 396.596V389.9C554.801 389.984 553.823 390.308 553.175 390.872C552.527 391.436 552.203 392.216 552.203 393.212ZM557.801 396.614C560.417 396.41 561.725 395.276 561.725 393.212C561.725 392.204 561.395 391.424 560.735 390.872C560.075 390.308 559.097 389.984 557.801 389.9V396.614ZM569.191 388.37C570.511 388.37 571.519 388.694 572.215 389.342C572.923 389.99 573.277 390.956 573.277 392.24V398H571.639V396.74C571.351 397.184 570.937 397.526 570.397 397.766C569.869 397.994 569.239 398.108 568.507 398.108C567.439 398.108 566.581 397.85 565.933 397.334C565.297 396.818 564.979 396.14 564.979 395.3C564.979 394.46 565.285 393.788 565.897 393.284C566.509 392.768 567.481 392.51 568.813 392.51H571.549V392.168C571.549 391.424 571.333 390.854 570.901 390.458C570.469 390.062 569.833 389.864 568.993 389.864C568.429 389.864 567.877 389.96 567.337 390.152C566.797 390.332 566.341 390.578 565.969 390.89L565.249 389.594C565.741 389.198 566.329 388.898 567.013 388.694C567.697 388.478 568.423 388.37 569.191 388.37ZM568.795 396.776C569.455 396.776 570.025 396.632 570.505 396.344C570.985 396.044 571.333 395.624 571.549 395.084V393.752H568.885C567.421 393.752 566.689 394.244 566.689 395.228C566.689 395.708 566.875 396.086 567.247 396.362C567.619 396.638 568.135 396.776 568.795 396.776ZM581.447 388.37C582.371 388.37 583.199 388.574 583.931 388.982C584.663 389.39 585.233 389.96 585.641 390.692C586.061 391.424 586.271 392.27 586.271 393.23C586.271 394.19 586.061 395.042 585.641 395.786C585.233 396.518 584.663 397.088 583.931 397.496C583.199 397.904 582.371 398.108 581.447 398.108C580.763 398.108 580.133 397.976 579.557 397.712C578.993 397.448 578.513 397.064 578.117 396.56V401.492H576.389V388.46H578.045V389.972C578.429 389.444 578.915 389.048 579.503 388.784C580.091 388.508 580.739 388.37 581.447 388.37ZM581.303 396.596C581.915 396.596 582.461 396.458 582.941 396.182C583.433 395.894 583.817 395.498 584.093 394.994C584.381 394.478 584.525 393.89 584.525 393.23C584.525 392.57 584.381 391.988 584.093 391.484C583.817 390.968 583.433 390.572 582.941 390.296C582.461 390.02 581.915 389.882 581.303 389.882C580.703 389.882 580.157 390.026 579.665 390.314C579.185 390.59 578.801 390.98 578.513 391.484C578.237 391.988 578.099 392.57 578.099 393.23C578.099 393.89 578.237 394.478 578.513 394.994C578.789 395.498 579.173 395.894 579.665 396.182C580.157 396.458 580.703 396.596 581.303 396.596ZM593.641 388.784C594.529 388.784 595.321 388.982 596.017 389.378C596.713 389.774 597.253 390.326 597.637 391.034C598.033 391.73 598.231 392.528 598.231 393.428C598.231 394.352 598.021 395.174 597.601 395.894C597.193 396.602 596.611 397.154 595.855 397.55C595.111 397.946 594.259 398.144 593.299 398.144C591.679 398.144 590.425 397.592 589.537 396.488C588.661 395.372 588.223 393.806 588.223 391.79C588.223 389.834 588.625 388.304 589.429 387.2C590.233 386.084 591.463 385.346 593.119 384.986L597.475 384.014L597.727 385.598L593.713 386.462C592.465 386.738 591.535 387.206 590.923 387.866C590.311 388.526 589.963 389.474 589.879 390.71C590.287 390.098 590.815 389.624 591.463 389.288C592.111 388.952 592.837 388.784 593.641 388.784ZM593.335 396.704C593.947 396.704 594.487 396.566 594.955 396.29C595.435 396.014 595.807 395.636 596.071 395.156C596.335 394.664 596.467 394.106 596.467 393.482C596.467 392.534 596.179 391.772 595.603 391.196C595.027 390.62 594.271 390.332 593.335 390.332C592.399 390.332 591.637 390.62 591.049 391.196C590.473 391.772 590.185 392.534 590.185 393.482C590.185 394.106 590.317 394.664 590.581 395.156C590.857 395.636 591.235 396.014 591.715 396.29C592.195 396.566 592.735 396.704 593.335 396.704ZM604.785 398.108C603.837 398.108 602.985 397.898 602.229 397.478C601.473 397.058 600.879 396.482 600.447 395.75C600.027 395.006 599.817 394.166 599.817 393.23C599.817 392.294 600.027 391.46 600.447 390.728C600.879 389.984 601.473 389.408 602.229 389C602.985 388.58 603.837 388.37 604.785 388.37C605.733 388.37 606.579 388.58 607.323 389C608.079 389.408 608.667 389.984 609.087 390.728C609.519 391.46 609.735 392.294 609.735 393.23C609.735 394.166 609.519 395.006 609.087 395.75C608.667 396.482 608.079 397.058 607.323 397.478C606.579 397.898 605.733 398.108 604.785 398.108ZM604.785 396.596C605.397 396.596 605.943 396.458 606.423 396.182C606.915 395.894 607.299 395.498 607.575 394.994C607.851 394.478 607.989 393.89 607.989 393.23C607.989 392.57 607.851 391.988 607.575 391.484C607.299 390.968 606.915 390.572 606.423 390.296C605.943 390.02 605.397 389.882 604.785 389.882C604.173 389.882 603.621 390.02 603.129 390.296C602.649 390.572 602.265 390.968 601.977 391.484C601.701 391.988 601.563 392.57 601.563 393.23C601.563 393.89 601.701 394.478 601.977 394.994C602.265 395.498 602.649 395.894 603.129 396.182C603.621 396.458 604.173 396.596 604.785 396.596ZM618.729 393.05C619.965 393.362 620.583 394.136 620.583 395.372C620.583 396.212 620.265 396.86 619.629 397.316C619.005 397.772 618.069 398 616.821 398H612.231V388.46H616.659C617.787 388.46 618.669 388.676 619.305 389.108C619.941 389.528 620.259 390.128 620.259 390.908C620.259 391.412 620.121 391.85 619.845 392.222C619.581 392.582 619.209 392.858 618.729 393.05ZM613.923 392.564H616.515C617.175 392.564 617.673 392.444 618.009 392.204C618.357 391.964 618.531 391.616 618.531 391.16C618.531 390.248 617.859 389.792 616.515 389.792H613.923V392.564ZM616.695 396.668C617.415 396.668 617.955 396.554 618.315 396.326C618.675 396.098 618.855 395.744 618.855 395.264C618.855 394.772 618.687 394.406 618.351 394.166C618.027 393.926 617.511 393.806 616.803 393.806H613.923V396.668H616.695ZM626.689 388.37C628.009 388.37 629.017 388.694 629.713 389.342C630.421 389.99 630.775 390.956 630.775 392.24V398H629.137V396.74C628.849 397.184 628.435 397.526 627.895 397.766C627.367 397.994 626.737 398.108 626.005 398.108C624.937 398.108 624.079 397.85 623.431 397.334C622.795 396.818 622.477 396.14 622.477 395.3C622.477 394.46 622.783 393.788 623.395 393.284C624.007 392.768 624.979 392.51 626.311 392.51H629.047V392.168C629.047 391.424 628.831 390.854 628.399 390.458C627.967 390.062 627.331 389.864 626.491 389.864C625.927 389.864 625.375 389.96 624.835 390.152C624.295 390.332 623.839 390.578 623.467 390.89L622.747 389.594C623.239 389.198 623.827 388.898 624.511 388.694C625.195 388.478 625.921 388.37 626.689 388.37ZM626.293 396.776C626.953 396.776 627.523 396.632 628.003 396.344C628.483 396.044 628.831 395.624 629.047 395.084V393.752H626.383C624.919 393.752 624.187 394.244 624.187 395.228C624.187 395.708 624.373 396.086 624.745 396.362C625.117 396.638 625.633 396.776 626.293 396.776ZM633.887 388.46H635.615V392.51H641.051V388.46H642.779V398H641.051V394.004H635.615V398H633.887V388.46ZM649.541 388.37C650.861 388.37 651.869 388.694 652.565 389.342C653.273 389.99 653.627 390.956 653.627 392.24V398H651.989V396.74C651.701 397.184 651.287 397.526 650.747 397.766C650.219 397.994 649.589 398.108 648.857 398.108C647.789 398.108 646.931 397.85 646.283 397.334C645.647 396.818 645.329 396.14 645.329 395.3C645.329 394.46 645.635 393.788 646.247 393.284C646.859 392.768 647.831 392.51 649.163 392.51H651.899V392.168C651.899 391.424 651.683 390.854 651.251 390.458C650.819 390.062 650.183 389.864 649.343 389.864C648.779 389.864 648.227 389.96 647.687 390.152C647.147 390.332 646.691 390.578 646.319 390.89L645.599 389.594C646.091 389.198 646.679 388.898 647.363 388.694C648.047 388.478 648.773 388.37 649.541 388.37ZM649.145 396.776C649.805 396.776 650.375 396.632 650.855 396.344C651.335 396.044 651.683 395.624 651.899 395.084V393.752H649.235C647.771 393.752 647.039 394.244 647.039 395.228C647.039 395.708 647.225 396.086 647.597 396.362C647.969 396.638 648.485 396.776 649.145 396.776Z" fill="#003B56"></path>
                    <path d="M320.145 198.352L317.438 191.805H303.252L300.546 198.352H293.3L306.919 167.798H313.903L327.565 198.352H320.145ZM305.522 186.436H315.212L310.367 174.738L305.522 186.436Z" fill="#003755"></path>
                    <path d="M349.034 186.087C351.784 187.003 353.181 188.88 353.181 191.674C353.181 195.821 350.081 198.352 343.621 198.352H331.093V174.869H343.097C348.99 174.869 352.482 177.095 352.482 180.936C352.482 183.293 351.216 185.083 349.034 186.087ZM337.335 179.496V184.515H342.486C344.843 184.515 346.066 183.642 346.066 181.984C346.066 180.281 344.843 179.496 342.486 179.496H337.335ZM343.054 193.725C345.542 193.725 346.808 192.896 346.808 191.15C346.808 189.361 345.673 188.531 343.185 188.531H337.335V193.725H343.054Z" fill="#003755"></path>
                    <path d="M377.977 174.869V180.456H370.033V198.352H363.267V180.456H355.322V174.869H377.977Z" fill="#003755"></path>
                    <path d="M384.968 171.595C382.436 171.595 380.734 169.936 380.734 167.798C380.734 165.659 382.436 164 384.968 164C387.5 164 389.202 165.571 389.202 167.667C389.202 169.936 387.5 171.595 384.968 171.595ZM381.563 198.352V174.869H388.373V198.352H381.563Z" fill="#003755"></path>
                    <path d="M412.847 186.087C415.597 187.003 416.993 188.88 416.993 191.674C416.993 195.821 413.894 198.352 407.434 198.352H394.906V174.869H406.91C412.803 174.869 416.295 177.095 416.295 180.936C416.295 183.293 415.029 185.083 412.847 186.087ZM401.148 179.496V184.515H406.299C408.656 184.515 409.878 183.642 409.878 181.984C409.878 180.281 408.656 179.496 406.299 179.496H401.148ZM406.867 193.725C409.355 193.725 410.621 192.896 410.621 191.15C410.621 189.361 409.486 188.531 406.998 188.531H401.148V193.725H406.867Z" fill="#003755"></path>
                    <path d="M438.691 198.352L432.405 189.448H428.869V198.352H422.06V174.869H428.869V183.992H432.536L438.909 174.869H446.155L437.949 186.13L446.722 198.352H438.691Z" fill="#003755"></path>
                    <path d="M450.066 198.352V174.869H456.832V188.837L468.268 174.869H474.51V198.352H467.744V184.384L456.352 198.352H450.066Z" fill="#003755"></path>
                    <path d="M483.544 190.234C485.989 190.234 487.735 191.936 487.735 194.424C487.735 195.559 487.56 196.388 486.556 198.789L484.068 205.074H479.747L481.667 198.134C480.227 197.567 479.31 196.214 479.31 194.424C479.31 191.892 481.143 190.234 483.544 190.234Z" fill="#003755"></path>
                    <path d="M265 225.161H288.353V248.644H281.543V230.748H271.766V248.644H265V225.161Z" fill="#003755"></path>
                    <path d="M317.711 236.99C317.711 237.514 317.623 238.256 317.58 238.823H299.814C300.469 241.748 302.957 243.537 306.536 243.537C309.024 243.537 310.814 242.795 312.429 241.268L316.052 245.196C313.87 247.684 310.596 248.994 306.362 248.994C298.243 248.994 292.961 243.887 292.961 236.903C292.961 229.875 298.33 224.812 305.489 224.812C312.385 224.812 317.711 229.439 317.711 236.99ZM305.532 229.962C302.433 229.962 300.207 231.839 299.727 234.851H311.294C310.814 231.883 308.588 229.962 305.532 229.962Z" fill="#003755"></path>
                    <path d="M336.768 224.812C343.359 224.812 348.466 229.526 348.466 236.903C348.466 244.28 343.359 248.994 336.768 248.994C333.843 248.994 331.442 248.077 329.696 246.156V257.113H322.887V225.161H329.391V227.867C331.093 225.816 333.625 224.812 336.768 224.812ZM335.589 243.407C338.994 243.407 341.569 240.962 341.569 236.903C341.569 232.843 338.994 230.399 335.589 230.399C332.184 230.399 329.609 232.843 329.609 236.903C329.609 240.962 332.184 243.407 335.589 243.407Z" fill="#003755"></path>
                    <path d="M376.067 236.99C376.067 237.514 375.98 238.256 375.936 238.823H358.171C358.826 241.748 361.314 243.537 364.893 243.537C367.381 243.537 369.171 242.795 370.786 241.268L374.409 245.196C372.226 247.684 368.952 248.994 364.718 248.994C356.599 248.994 351.318 243.887 351.318 236.903C351.318 229.875 356.687 224.812 363.845 224.812C370.742 224.812 376.067 229.439 376.067 236.99ZM363.889 229.962C360.79 229.962 358.564 231.839 358.084 234.851H369.651C369.171 231.883 366.945 229.962 363.889 229.962Z" fill="#003755"></path>
                    <path d="M399.227 236.379C401.977 237.296 403.374 239.172 403.374 241.966C403.374 246.113 400.275 248.644 393.815 248.644H381.287V225.161H393.291C399.184 225.161 402.676 227.387 402.676 231.228C402.676 233.585 401.41 235.375 399.227 236.379ZM387.529 229.788V234.808H392.68C395.037 234.808 396.259 233.935 396.259 232.276C396.259 230.573 395.037 229.788 392.68 229.788H387.529ZM393.247 244.018C395.735 244.018 397.001 243.188 397.001 241.442C397.001 239.653 395.866 238.823 393.378 238.823H387.529V244.018H393.247Z" fill="#003755"></path>
                    <path d="M411.802 221.887C409.27 221.887 407.568 220.228 407.568 218.09C407.568 215.951 409.27 214.292 411.802 214.292C414.333 214.292 416.036 215.864 416.036 217.959C416.036 220.228 414.333 221.887 411.802 221.887ZM408.397 248.644V225.161H415.206V248.644H408.397Z" fill="#003755"></path>
                    <path d="M435.577 224.812C442.169 224.812 447.276 229.526 447.276 236.903C447.276 244.28 442.169 248.994 435.577 248.994C432.653 248.994 430.252 248.077 428.506 246.156V257.113H421.697V225.161H428.2V227.867C429.903 225.816 432.435 224.812 435.577 224.812ZM434.399 243.407C437.804 243.407 440.379 240.962 440.379 236.903C440.379 232.843 437.804 230.399 434.399 230.399C430.994 230.399 428.419 232.843 428.419 236.903C428.419 240.962 430.994 243.407 434.399 243.407Z" fill="#003755"></path>
                    <path d="M474.877 236.99C474.877 237.514 474.79 238.256 474.746 238.823H456.981C457.635 241.748 460.124 243.537 463.703 243.537C466.191 243.537 467.981 242.795 469.596 241.268L473.219 245.196C471.036 247.684 467.762 248.994 463.528 248.994C455.409 248.994 450.128 243.887 450.128 236.903C450.128 229.875 455.497 224.812 462.655 224.812C469.552 224.812 474.877 229.439 474.877 236.99ZM462.699 229.962C459.6 229.962 457.374 231.839 456.893 234.851H468.461C467.981 231.883 465.754 229.962 462.699 229.962Z" fill="#003755"></path>
                    <path d="M480.097 248.644V225.161H486.863V234.327H497.077V225.161H503.886V248.644H497.077V239.871H486.863V248.644H480.097Z" fill="#003755"></path>
                    <path d="M513.766 221.887C511.234 221.887 509.532 220.228 509.532 218.09C509.532 215.951 511.234 214.292 513.766 214.292C516.298 214.292 518 215.864 518 217.959C518 220.228 516.298 221.887 513.766 221.887ZM510.361 248.644V225.161H517.171V248.644H510.361Z" fill="#003755"></path>
                    <path d="M300.907 275.453H320.986V298.937H314.176V281.04H306.756L306.538 285.187C306.188 293.568 304.835 299.417 299.03 299.417C297.982 299.417 296.847 299.242 295.494 298.893L295.843 293.306C296.193 293.349 296.542 293.393 296.847 293.393C300.077 293.393 300.339 289.334 300.558 284.881L300.907 275.453Z" fill="#003755"></path>
                    <path d="M349.752 275.104C356.998 275.104 362.236 280.08 362.236 287.195C362.236 294.266 356.998 299.286 349.752 299.286C343.466 299.286 338.709 295.532 337.53 289.988H334.3V298.937H327.534V275.453H334.3V284.096H337.574C338.883 278.683 343.554 275.104 349.752 275.104ZM349.752 293.699C352.982 293.699 355.514 291.254 355.514 287.195C355.514 283.092 352.982 280.691 349.752 280.691C346.478 280.691 343.947 283.092 343.947 287.195C343.947 291.254 346.478 293.699 349.752 293.699Z" fill="#003755"></path>
                    <path d="M389.583 293.349H392.944V304H386.615V298.937H370.115V304H363.786V293.349H364.746C367.976 293.262 368.544 288.679 368.806 283.572L369.111 275.453H389.583V293.349ZM374.96 284.052C374.83 288.024 374.524 291.603 372.865 293.349H382.774V281.04H375.091L374.96 284.052Z" fill="#003755"></path>
                    <path d="M409.932 282.961C416.087 283.004 419.404 285.842 419.404 290.774C419.404 295.968 415.563 298.98 409.015 298.98L397.23 298.937V275.453H403.995V282.961H409.932ZM408.404 294.135C411.023 294.179 412.464 293 412.464 290.687C412.464 288.373 411.023 287.413 408.404 287.369L403.995 287.326V294.135H408.404Z" fill="#003755"></path>
                    <path d="M452.73 298.937H446.575V284.881L439.547 296.667H436.666L429.813 284.838V298.937H423.658V275.453H430.773L438.281 289.028L446.269 275.453H452.642L452.73 298.937Z" fill="#003755"></path>
                    <path d="M459.252 298.937V275.453H466.018V289.421L477.454 275.453H483.696V298.937H476.931V284.969L465.538 298.937H459.252Z" fill="#003755"></path>
                </svg>